Coordinates
version=1
nRows=16
nColumns=42
inDegrees=yes

Units are S.I. units (second, meters, Newtons, ...)
If the header above contains a line with 'inDegrees', this indicates whether rotational values are in degrees (yes) or radians (no).

endheader
time	pelvis_tilt	pelvis_list	pelvis_rotation	pelvis_tx	pelvis_ty	pelvis_tz	hip_flexion_r	hip_adduction_r	hip_rotation_r	knee_angle_r	knee_adduction_r	knee_angle_r_beta	ankle_angle_r	subtalar_angle_r	mtp_angle_r	hip_flexion_l	hip_adduction_l	hip_rotation_l	knee_angle_l	knee_adduction_l	knee_angle_l_beta	ankle_angle_l	subtalar_angle_l	mtp_angle_l	lumbar_extension	lumbar_bending	lumbar_rotation	arm_flex_r	arm_add_r	arm_rot_r	elbow_flex_r	pro_sup_r	wrist_flex_r	wrist_dev_r	arm_flex_l	arm_add_l	arm_rot_l	elbow_flex_l	pro_sup_l	wrist_flex_l	wrist_dev_l
      0.00000000	     11.23812931	      5.40135213	     -1.61330611	     -1.11236552	      0.88947004	     -0.32821390	     -3.54251569	     -8.69701673	      0.04649022	     71.78377332	      0.28136912	      1.25286319	     10.95516138	    -16.20089664	     -9.72742096	     -7.10016604	      6.72982591	     -9.36697133	     15.31389488	      4.80582096	      0.26727789	     15.98190676	     -8.07885833	     -9.72742096	    -22.29153339	     -8.84191001	     -1.86330617	     -5.69520898	     -2.43882689	    -20.49078134	     38.01178887	     90.00000001	      0.00000000	      0.00000000	     -2.20940913	     -5.56142207	    -23.25452971	     35.96276564	     90.00000001	      0.00000000	      0.00000000
      0.01000000	     11.17869145	      5.02739928	     -1.54028637	     -1.10229740	      0.89041150	     -0.32909991	     -1.79750569	     -8.22829276	      0.59256644	     71.63229153	      0.51241343	      1.25021934	     11.79387932	    -16.61143227	     -9.65335682	     -8.30960984	      6.41114083	     -9.20201660	     14.21641919	      4.92793156	      0.24812332	     16.20384641	     -7.67701867	     -9.65335682	    -22.30514616	     -8.35360448	     -2.16054088	     -5.86712518	     -2.48743375	    -20.79880027	     37.86986596	     90.00000001	      0.00000000	      0.00000000	     -1.88518687	     -5.59016961	    -22.38003620	     36.39789266	     90.00000001	      0.00000000	      0.00000000
      0.02000000	     11.13701551	      4.61227570	     -1.38846777	     -1.09217168	      0.89121754	     -0.32990289	     -0.18565795	     -7.68237540	      0.97047348	     71.10043848	      0.68288257	      1.24093675	     12.59337752	    -16.84347198	     -9.58705859	     -9.59370128	      5.98846260	     -8.96576290	     13.06234957	      5.16222113	      0.22798101	     16.31750946	     -7.36746052	     -9.58705859	    -22.32852120	     -7.82535338	     -2.49470056	     -6.01725746	     -2.49462855	    -21.23157667	     37.73498577	     90.00000001	      0.00000000	      0.00000000	     -1.57117420	     -5.64114549	    -21.55778234	     36.90095274	     90.00000001	      0.00000000	      0.00000000
      0.03000000	     10.92320515	      4.36614977	     -1.14123421	     -1.08207746	      0.89154766	     -0.33093128	      1.56692146	     -7.38072937	      0.98816111	     70.33034720	      0.67018899	      1.22749612	     13.37190058	    -16.88272497	     -9.55770478	    -10.45533211	      5.81078321	     -9.24587500	     12.38059584	      5.02086719	      0.21608216	     16.42703745	     -7.06058741	     -9.55770478	    -22.16526588	     -7.43265483	     -3.01088658	     -6.22638333	     -2.53262908	    -21.40580507	     37.69496781	     90.00000001	      0.00000000	      0.00000000	     -1.22349885	     -5.63826290	    -21.19826734	     37.29899934	     90.00000001	      0.00000000	      0.00000000
      0.04000000	     10.82474245	      3.93279130	     -0.98941778	     -1.07222545	      0.89193956	     -0.33141183	      3.12777033	     -6.73980077	      1.47131347	     69.24060227	      0.88204335	      1.20847649	     13.95173351	    -17.11231626	     -9.51196598	    -11.78236458	      5.33028300	     -8.71612577	     10.93368388	      5.30775227	      0.19082878	     16.57121028	     -6.22956331	     -9.51196598	    -22.17041109	     -6.91677134	     -3.28962288	     -6.30196466	     -2.48618372	    -21.92216476	     37.43885758	     90.00000001	      0.00000000	      0.00000000	     -0.90255887	     -5.77252628	    -20.26502811	     37.96554564	     90.00000001	      0.00000000	      0.00000000
      0.05000000	     10.95884704	      3.55092289	     -0.71883524	     -1.06190863	      0.89239910	     -0.33204417	      4.20892907	     -6.24274836	      1.76149060	     67.68459450	      1.20325825	      1.18131903	     14.14736930	    -17.28050838	     -9.44990635	    -13.37082072	      4.88740150	     -8.42711644	      9.55684109	      5.49706506	      0.16679834	     16.56503818	     -5.61547634	     -9.44990635	    -22.36907506	     -6.41131867	     -3.75092710	     -6.35174989	     -2.35965635	    -22.73012306	     37.24647217	     90.00000001	      0.00000000	      0.00000000	     -0.65247188	     -6.00223472	    -19.00511651	     38.57875632	     90.00000001	      0.00000000	      0.00000000
      0.06000000	     11.03149265	      3.17047784	     -0.41432769	     -1.05173839	      0.89258710	     -0.33255977	      5.32029575	     -5.71841173	      1.64283609	     65.91872382	      1.14699993	      1.15049877	     14.34648034	    -17.24358878	     -9.30684273	    -14.83587297	      4.41809142	     -8.19376323	      8.28375460	      5.65546673	      0.14457879	     16.39949172	     -5.35317439	     -9.30684273	    -22.52225397	     -5.90728591	     -4.18423436	     -6.38142935	     -2.18390235	    -23.80665996	     37.08935202	     90.00000001	      0.00000000	      0.00000000	     -0.33293302	     -6.26993154	    -17.69757293	     39.16983437	     90.00000001	      0.00000000	      0.00000000
      0.07000000	     10.79898730	      3.02757511	     -0.20814772	     -1.04176461	      0.89207361	     -0.33314412	      6.81790900	     -5.51765849	      1.82940611	     64.14957980	      1.32285280	      1.11962138	     14.53056836	    -17.17088351	     -9.26201684	    -15.87902385	      4.25094201	     -8.34914733	      7.15333401	      5.70511089	      0.12484923	     16.49563657	     -4.29037748	     -9.26201684	    -22.35236258	     -5.68463593	     -4.63558221	     -6.45728570	     -2.14605284	    -24.08479543	     36.84998526	     90.00000001	      0.00000000	      0.00000000	      0.07894831	     -6.34035717	    -17.31019219	     39.65219432	     90.00000001	      0.00000000	      0.00000000
      0.08000000	     10.97535174	      2.69693290	      0.06316978	     -1.03149909	      0.89190686	     -0.33357176	      7.63208939	     -5.07985464	      1.84214291	     61.90447179	      1.43986185	      1.08043685	     14.47202180	    -17.09741866	     -9.18112571	    -17.42786156	      3.79090088	     -8.76504256	      5.97488113	      5.86719834	      0.10428135	     16.59455882	     -2.99056562	     -9.18112571	    -22.60073902	     -5.25023858	     -5.05493779	     -6.48388880	     -2.00310680	    -24.91838840	     36.70294307	     90.00000001	      0.00000000	      0.00000000	      0.48138554	     -6.50333226	    -16.51925692	     40.18780754	     90.00000001	      0.00000000	      0.00000000
      0.09000000	     10.84074812	      2.57613969	      0.23053096	     -1.02144252	      0.89107792	     -0.33385863	      8.86895822	     -4.96273392	      1.78316663	     59.71076911	      1.58828104	      1.04214952	     14.36314591	    -16.84805756	     -9.13251604	    -18.58117822	      3.55129210	     -9.33201013	      4.88858934	      6.10336199	      0.08532198	     16.69355528	     -1.67872906	     -9.13251604	    -22.52584716	     -5.09474786	     -5.45058269	     -6.50232794	     -1.92552651	    -25.36653754	     36.43995734	     90.00000001	      0.00000000	      0.00000000	      0.89089973	     -6.67059976	    -16.03414558	     40.68882976	     90.00000001	      0.00000000	      0.00000000
      0.10000000	     10.86439713	      2.40175301	      0.44762219	     -1.01118482	      0.89026499	     -0.33428337	      9.74381251	     -4.67229225	      1.77527844	     57.19591038	      1.56542159	      0.99825695	     14.24598218	    -16.65272251	     -9.08452189	    -19.94555151	      3.28958492	    -10.08066487	      3.75414573	      6.25789983	      0.06552220	     16.78207391	     -0.04402518	     -9.08452189	    -22.60397619	     -4.84615517	     -5.81660211	     -6.50996457	     -1.80305118	    -25.99569034	     36.15706425	     90.00000001	      0.00000000	      0.00000000	      1.30528594	     -6.76951257	    -15.36894440	     41.28710040	     90.00000001	      0.00000000	      0.00000000
      0.11000000	     10.43189298	      2.67617102	      0.65425566	     -1.00125949	      0.88861127	     -0.33483780	     11.27207699	     -5.06925800	      1.34740485	     54.91823469	      1.48963439	      0.95850401	     14.01170932	    -16.17995627	     -9.06520070	    -20.46011592	      3.47087885	    -11.12112479	      3.40920258	      6.49221456	      0.05950181	     16.97993251	      0.30373890	     -9.06520070	    -22.23791239	     -5.07737961	     -6.30550937	     -6.69800842	     -1.71724062	    -26.11031167	     36.16074348	     90.00000001	      0.00000000	      0.00000000	      1.77809951	     -6.86378799	    -15.15879164	     41.70330075	     90.00000001	      0.00000000	      0.00000000
      0.12000000	     11.03825036	      1.85753070	      0.84926786	     -0.99045616	      0.88815494	     -0.33446091	     11.10023029	     -3.90838500	      0.98810675	     51.63926860	      1.19044190	      0.90127526	     13.75376401	    -15.79891511	     -8.89916887	    -22.33559860	      2.26798018	    -13.60967662	      2.78576643	      6.97279541	      0.04862080	     17.88372189	      5.34715870	     -8.89916887	    -22.87146708	     -4.21655475	     -6.33094887	     -6.42784851	     -1.44529370	    -27.94223767	     35.60464637	     90.00000001	      0.00000000	      0.00000000	      2.08515337	     -7.17573431	    -13.69650942	     42.52234769	     90.00000001	      0.00000000	      0.00000000
      0.13000000	     11.12677577	      1.73558981	      0.97976909	     -0.98009667	      0.88685553	     -0.33451939	     11.64794780	     -3.70794537	      0.69524569	     48.66622832	      1.07678216	      0.84938592	     13.63947218	    -15.10496056	     -8.82201188	    -23.56721419	      1.95810213	    -15.09118598	      2.24431246	      7.38442265	      0.03917064	     18.07612396	      7.30005890	     -8.82201188	    -23.01244256	     -4.08119349	     -6.55695187	     -6.43909924	     -1.32192058	    -28.49746015	     35.38903240	     90.00000001	      0.00000000	      0.00000000	      2.45234552	     -7.38295188	    -12.91486628	     43.21535385	     90.00000001	      0.00000000	      0.00000000
      0.14000000	     11.13685187	      1.66439820	      1.04816705	     -0.96965167	      0.88528906	     -0.33447647	     12.23520042	     -3.56188489	      0.28737751	     45.65614587	      0.86761654	      0.79685007	     13.53115284	    -14.06984597	     -8.70047780	    -24.59616168	      1.68974307	    -17.01762580	      2.03117555	      7.80445757	      0.03545070	     18.57139244	     10.09161294	     -8.70047780	    -23.04946009	     -4.02623977	     -6.72407846	     -6.35663261	     -1.19276840	    -29.16788887	     34.96513139	     90.00000001	      0.00000000	      0.00000000	      2.80704355	     -7.58957679	    -12.18979559	     43.84586615	     90.00000001	      0.00000000	      0.00000000
      0.15000000	     11.18623200	      1.60868027	      1.10263452	     -0.95915834	      0.88366627	     -0.33445271	     12.65739090	     -3.42954623	     -0.12509215	     42.50977680	      0.64919577	      0.74193557	     13.55566831	    -12.65291271	     -8.62530845	    -25.69376527	      1.45548121	    -18.58122071	      1.76901323	      8.25693120	      0.03087511	     18.78942673	     11.99948846	     -8.62530845	    -23.12417305	     -3.97533506	     -6.89444370	     -6.28024003	     -1.09602159	    -29.71950298	     34.63367236	     90.00000001	      0.00000000	      0.00000000	      3.09898593	     -7.82851510	    -11.34621796	     44.54689369	     90.00000001	      0.00000000	      0.00000000
